
<svg xmlns="http://www.w3.org/2000/svg" xmlns:xlink="http://www.w3.org/1999/xlink" width="42.667" height="42.667" viewBox="0 0 32 32" xmlns:v="https://vecta.io/nano"><style><![CDATA[.B{overflow:visible}.C{stroke:none}.D{fill:rgb(8.627451%,77.647059%,4.705882%)}.E{fill:rgb(38.039216%,83.921569%,83.921569%)}.F{fill:rgb(100%,100%,100%)}.G{stroke-miterlimit:10}]]></style><defs><symbol id="A" class="B"><path d="M.344-.141v.016l-.078.078-.031-.016.047-.047h-.25v-.047h.25L.234-.203.266-.234zm0 0" class="C"/></symbol><symbol id="B" class="B"><path d="M.328-.172v.031c-.023.012-.039.023-.047.031H.234.188C.172-.117.172-.125.172-.125.148-.133.133-.141.125-.141s-.027.008-.047.016c-.012.012-.023.016-.031.016v-.031c.008-.008.02-.016.031-.016.02-.008.035-.016.047-.016.02 0 .039.008.063.016s.039.016.063.016h.031c.008-.008.023-.02.047-.031zm0 0" class="C"/></symbol><symbol id="C" class="B"><path d="M.219-.234v.047C.207-.195.195-.203.188-.203.176-.211.16-.219.141-.219s-.043.012-.062.031c-.012.012-.016.039-.016.078 0 .023.004.043.016.063.02.012.039.016.063.016h.047c.008 0 .02-.004.031-.016V0H.188.141C.109 0 .082-.008.063-.031S.031-.078.031-.109c0-.039.008-.07.031-.094.02-.031.047-.047.078-.047.02 0 .035.008.047.016h.031zm0 0" class="C"/></symbol><symbol id="D" class="B"><path d="M.219-.187A.14.14 0 0 1 .25-.234C.27-.242.289-.25.313-.25s.035.012.047.031c.02.023.031.047.031.078V0H.344v-.141c0-.02-.008-.035-.016-.047 0-.02-.012-.031-.031-.031S.258-.207.25-.187C.238-.176.234-.16.234-.141V0H.188v-.141c0-.02-.008-.035-.016-.047 0-.02-.012-.031-.031-.031s-.039.012-.047.031C.082-.176.078-.16.078-.141V0H.047v-.234h.031v.031l.031-.031C.117-.242.133-.25.156-.25s.035.008.047.016.016.027.016.047zm0 0" class="C"/></symbol><symbol id="E" class="B"><path d="M.156-.125c-.031 0-.059.008-.078.016-.012.012-.016.023-.016.031s.004.023.016.031.02.016.031.016c.031 0 .051-.004.063-.016.008-.02.016-.039.016-.062v-.016zm.063-.016V0H.188v-.031L.156 0H.109C.078 0 .055-.004.047-.016S.031-.039.031-.062c0-.031.004-.051.016-.062.02-.02.051-.031.094-.031h.047c0-.02-.008-.035-.016-.047S.145-.219.125-.219c-.012 0-.027.008-.047.016-.012 0-.023.008-.031.016v-.031c.008-.008.02-.016.031-.016.02-.008.035-.016.047-.016.031 0 .051.012.063.031.02.023.031.047.031.078zm0 0" class="C"/></symbol><symbol id="F" class="B"><path d="M.047-.328h.031v.188l.125-.094H.25l-.125.109L.25 0H.203L.078-.109V0H.047zm0 0" class="C"/></symbol><symbol id="G" class="B"><path d="M.25-.125v.016H.063c0 .031.004.055.016.063.02.012.047.016.078.016h.031c.02-.008.035-.016.047-.016v.031C.223-.004.207 0 .188 0H.156C.113 0 .082-.008.063-.031S.031-.078.031-.109c0-.039.008-.07.031-.094.02-.031.047-.047.078-.047s.055.012.078.031.031.055.031.094zM.203-.141c0-.02-.008-.035-.016-.047C.176-.207.16-.219.141-.219s-.043.012-.062.031C.066-.176.063-.16.063-.141zm0 0" class="C"/></symbol><symbol id="H" class="B"><path d="M.016-.141h.125v.031H.016zm0 0" class="C"/></symbol><symbol id="I" class="B"><path d="M.094-.281v.25h.047c.039 0 .07-.008.094-.031s.031-.051.031-.094S.254-.227.234-.25.18-.281.141-.281zM.047-.328h.078c.063 0 .109.016.141.047s.047.074.047.125-.016.094-.047.125C.234-.008.188 0 .125 0H.047zm0 0" class="C"/></symbol><symbol id="J" class="B"><path d="M.281-.297v.047C.27-.258.254-.266.234-.266.223-.273.207-.281.188-.281.145-.281.113-.27.094-.25s-.031.055-.031.094.008.074.031.094.051.031.094.031h.047a.14.14 0 0 0 .047-.031v.031C.27-.008.254 0 .234 0H.172C.129 0 .094-.008.063-.031.039-.062.031-.102.031-.156S.039-.25.063-.281c.031-.031.066-.047.109-.047.031 0 .051.008.063.016.02 0 .035.008.047.016zm0 0" class="C"/></symbol><symbol id="K" class="B"><path d="M.047-.328h.063l.078.219.094-.219h.047V0H.297v-.281l-.078.219H.172L.078-.281V0H.047zm0 0" class="C"/></symbol><symbol id="L" class="B"><path d="M.156-.281l-.062.172h.109zM.125-.328h.047L.297 0H.25L.219-.078H.078L.047 0H0zm0 0" class="C"/></symbol><symbol id="M" class="B"><path d="M.047-.328h.047v.141l.141-.141h.047l-.156.156L.297 0H.234L.094-.156V0H.047zm0 0" class="C"/></symbol><symbol id="N" class="B"><path d="M.047-.328H.25v.047H.094v.094h.141v.031H.094v.125H.25V0H.047zm0 0" class="C"/></symbol><symbol id="O" class="B"><path d="M.219.078v.031H0V.078zm0 0" class="C"/></symbol><symbol id="P" class="B"><path d="M.094-.156v.125h.063c.02 0 .035-.004.047-.016S.219-.07.219-.094.211-.129.203-.141.176-.156.156-.156zm0-.125v.094h.063c.02 0 .035-.004.047-.016s.016-.02.016-.031c0-.02-.008-.031-.016-.031C.191-.273.176-.281.156-.281zM.047-.328h.109c.031 0 .051.012.063.031.02.012.031.031.031.063 0 .012-.008.027-.016.047-.012.012-.023.016-.031.016.02 0 .035.012.047.031.008.012.016.027.016.047 0 .031-.012.059-.031.078C.223-.004.195 0 .156 0H.047zm0 0" class="C"/></symbol><symbol id="Q" class="B"><path d="M.047-.328h.031v.203c0 .031.004.059.016.078.008.012.031.016.063.016s.051-.004.063-.016c.008-.02.016-.047.016-.078v-.203h.047v.203c0 .043-.012.074-.031.094S.195 0 .156 0C.125 0 .098-.008.078-.031S.047-.082.047-.125zm0 0" class="C"/></symbol><symbol id="R" class="B"><path d="M.047-.328h.047V0H.047zm0 0" class="C"/></symbol><symbol id="S" class="B"><path d="M.047-.328h.047v.297h.141V0H.047zm0 0" class="C"/></symbol><symbol id="T" class="B"><path d="M.172-.281c-.031 0-.059.012-.078.031s-.031.055-.031.094.008.074.031.094.047.031.078.031A.1.1 0 0 0 .25-.062c.02-.02.031-.051.031-.094S.27-.227.25-.25.203-.281.172-.281zm0-.047c.039 0 .078.016.109.047s.047.074.047.125-.016.094-.047.125C.25-.008.211 0 .172 0S.094-.008.063-.031C.039-.062.031-.102.031-.156S.039-.25.063-.281c.031-.031.066-.047.109-.047zm0 0" class="C"/></symbol><symbol id="U" class="B"><path d="M.219-.109c0-.039-.012-.066-.031-.078C.176-.207.16-.219.141-.219s-.039.012-.047.031c-.012.012-.016.039-.016.078 0 .023.004.043.016.063.008.012.023.016.047.016s.035-.004.047-.016c.02-.02.031-.039.031-.062zM.078-.203l.031-.031C.117-.242.133-.25.156-.25c.031 0 .051.016.063.047.02.023.031.055.031.094 0 .031-.012.059-.031.078C.207-.008.188 0 .156 0H.109C.098-.008.086-.02.078-.031V0H.047v-.328h.031zm0 0" class="C"/></symbol><symbol id="V" class="B"><path d="M.031-.094v-.141h.047v.141c0 .023.004.039.016.047s.02.016.031.016c.031 0 .051-.004.063-.016s.016-.031.016-.062v-.125h.031V0H.203v-.031A.14.14 0 0 1 .156 0H.125C.094 0 .066-.004.047-.016.035-.035.031-.062.031-.094zM.141-.25zm0 0" class="C"/></symbol><symbol id="W" class="B"><path d="M.203-.125c0-.031-.008-.051-.016-.062C.176-.207.156-.219.125-.219c-.012 0-.027.012-.047.031-.012.012-.016.031-.016.063s.004.059.016.078c.02.012.035.016.047.016.031 0 .051-.004.063-.016.008-.02.016-.047.016-.078zm.031.094c0 .039-.012.07-.031.094C.191.082.164.094.125.094.113.094.098.086.078.078L.063.047c.035.008.051.016.063.016.02 0 .035-.012.047-.031C.191.02.203.004.203-.016v-.031C.191-.023.18-.008.172 0H.125C.094 0 .066-.008.047-.031.035-.051.031-.082.031-.125c0-.031.004-.055.016-.078.02-.031.047-.047.078-.047.02 0 .035.008.047.016s.02.023.031.031v-.031h.031zm0 0" class="C"/></symbol><symbol id="X" class="B"><path d="M.047-.234h.031V0H.047zm0-.094h.031v.047H.047zm0 0" class="C"/></symbol><symbol id="Y" class="B"><path d="M.047-.328h.031V0H.047zm0 0" class="C"/></symbol><symbol id="Z" class="B"><path d="M.203-.203v-.125h.031V0H.203v-.031L.172 0H.125C.094 0 .066-.008.047-.031.035-.051.031-.078.031-.109c0-.039.004-.07.016-.094.02-.031.047-.047.078-.047.02 0 .035.008.047.016s.02.023.031.031zm-.141.094c0 .023.004.043.016.063.02.012.035.016.047.016.031 0 .051-.004.063-.016.008-.02.016-.039.016-.062 0-.039-.008-.066-.016-.078C.176-.207.156-.219.125-.219c-.012 0-.027.012-.047.031-.012.012-.016.039-.016.078zm0 0" class="C"/></symbol><symbol id="a" class="B"><path d="M.047-.062h.047V0H.047zm0 0" class="C"/></symbol><symbol id="b" class="B"><path d="M.109-.172l-.031.031c-.012.012-.016.023-.016.031 0 .031.004.055.016.063.02.012.047.016.078.016h.031l.031-.031zm.031-.031l.109.125c.008-.02.016-.035.016-.047.008-.008.016-.023.016-.047h.031c0 .023-.008.043-.016.063a.14.14 0 0 0-.031.047L.328 0H.281L.25-.031.188 0H.141C.109 0 .082-.008.063-.031S.031-.07.031-.094.035-.129.047-.141c.008-.02.02-.039.031-.062 0-.008-.008-.016-.016-.016V-.25c0-.02.004-.035.016-.047.02-.02.047-.031.078-.031.008 0 .02.008.031.016h.031v.031H.188C.176-.289.164-.297.156-.297c-.023 0-.039.008-.047.016v.031.031s.008.008.031.016zm0 0" class="C"/></symbol><symbol id="c" class="B"><path d="M.078-.312v.078h.094v.016H.078v.141.047h.047.047V0H.125C.094 0 .07-.004.063-.016S.047-.047.047-.078v-.141H.016v-.016h.031v-.078zm0 0" class="C"/></symbol><symbol id="d" class="B"><path d="M.188-.234v.031H.156C.145-.211.133-.219.125-.219c-.023 0-.039.008-.047.016S.063-.18.063-.172c.008.016.023.023.047.031h.016c.031.012.051.023.063.031s.016.027.016.047-.012.039-.031.047C.16-.004.141 0 .109 0H.063.016v-.047c.02 0 .035.008.047.016h.047.047c.008-.008.016-.02.016-.031S.164-.078.156-.078L.109-.109H.094C.07-.109.055-.113.047-.125S.031-.148.031-.172.035-.207.047-.219c.02-.02.039-.031.063-.031s.035.008.047.016h.031zm0 0" class="C"/></symbol><path id="e" d="M5.094 8.156c0 .105-.082.188-.187.188s-.187-.082-.187-.187.082-.187.188-.187.188.082.188.188zm0 0"/></defs><path d="M32 16c0 8.836-7.164 16-16 16S0 24.836 0 16 7.164 0 16 0s16 7.164 16 16zm0 0" fill="rgb(12.54902%,53.333333%,75.294118%)"/><path d="M22.125 18.063H4.688a.28.28 0 0 1-.281-.281V8.219a.28.28 0 0 1 .281-.281h17.438a.28.28 0 0 1 .281.281v9.563a.28.28 0 0 1-.281.281zm0 0" fill="rgb(4.705882%,8.627451%,17.647059%)" stroke="rgb(0%,5.490196%,20%)" stroke-width=".625" class="G"/><path d="M4.719 8.25h17.375v.344H4.719zm0 0" fill="rgb(0%,5.490196%,20%)"/><use xlink:href="#e" fill="rgb(100%,37.647059%,34.117647%)"/><use xlink:href="#e" x="0.469" fill="rgb(99.607843%,72.54902%,18.039216%)"/><use xlink:href="#e" x="0.937" fill="rgb(16.470588%,80%,25.882353%)"/><use xlink:href="#A" x="5.051" y="9.211" class="D"/><g class="E"><use xlink:href="#B" x="5.574" y="9.211"/><use xlink:href="#D" x="5.941" y="9.211"/></g><g class="F"><use xlink:href="#C" x="6.102" y="9.211"/><use xlink:href="#D" x="6.342" y="9.211"/><use xlink:href="#E" x="6.768" y="9.211"/><use xlink:href="#F" x="7.036" y="9.211"/><use xlink:href="#G" x="7.254" y="9.211"/><use xlink:href="#D" x="7.523" y="9.211"/><use xlink:href="#H" x="7.662" y="9.211"/><use xlink:href="#I" x="7.82" y="9.211"/><use xlink:href="#J" x="8.157" y="9.211"/><use xlink:href="#K" x="8.463" y="9.211"/><use xlink:href="#L" x="8.84" y="9.211"/><use xlink:href="#M" x="9.139" y="9.211"/><use xlink:href="#N" x="9.426" y="9.211"/><use xlink:href="#O" x="9.703" y="9.211"/><use xlink:href="#P" x="9.921" y="9.211"/><use xlink:href="#Q" x="10.222" y="9.211"/><use xlink:href="#R" x="10.542" y="9.211"/><use xlink:href="#S" x="10.671" y="9.211"/><use xlink:href="#I" x="10.915" y="9.211"/><use xlink:href="#O" x="11.251" y="9.211"/><use xlink:href="#K" x="11.47" y="9.211"/><use xlink:href="#T" x="11.848" y="9.211"/><use xlink:href="#I" x="12.192" y="9.211"/><use xlink:href="#N" x="12.529" y="9.211"/><use xlink:href="#D" x="12.805" y="9.211"/><use xlink:href="#I" x="12.944" y="9.211"/><use xlink:href="#G" x="13.281" y="9.211"/><use xlink:href="#U" x="13.55" y="9.211"/><use xlink:href="#V" x="13.828" y="9.211"/><use xlink:href="#W" x="14.105" y="9.211"/><use xlink:href="#D" x="14.383" y="9.211"/><use xlink:href="#H" x="14.522" y="9.211"/><use xlink:href="#U" x="14.68" y="9.211"/><use xlink:href="#D" x="14.958" y="9.211"/><use xlink:href="#U" x="15.097" y="9.211"/><use xlink:href="#V" x="15.375" y="9.211"/><use xlink:href="#X" x="15.652" y="9.211"/><use xlink:href="#Y" x="15.773" y="9.211"/><use xlink:href="#Z" x="15.895" y="9.211"/><use xlink:href="#D" x="16.173" y="9.211"/><use xlink:href="#a" x="16.312" y="9.211"/></g><use xlink:href="#A" x="5.051" y="9.734" class="D"/><g class="E"><use xlink:href="#B" x="5.574" y="9.734"/><use xlink:href="#D" x="5.941" y="9.734"/></g><g class="F"><use xlink:href="#C" x="6.102" y="9.734"/><use xlink:href="#D" x="6.342" y="9.734"/><use xlink:href="#E" x="6.768" y="9.734"/><use xlink:href="#F" x="7.036" y="9.734"/><use xlink:href="#G" x="7.254" y="9.734"/><use xlink:href="#D" x="7.523" y="9.734"/><use xlink:href="#H" x="7.662" y="9.734"/><use xlink:href="#H" x="7.82" y="9.734"/><use xlink:href="#U" x="7.978" y="9.734"/><use xlink:href="#V" x="8.256" y="9.734"/><use xlink:href="#X" x="8.533" y="9.734"/><use xlink:href="#Y" x="8.655" y="9.734"/><use xlink:href="#Z" x="8.776" y="9.734"/><use xlink:href="#D" x="9.054" y="9.734"/><use xlink:href="#U" x="9.193" y="9.734"/><use xlink:href="#V" x="9.471" y="9.734"/><use xlink:href="#X" x="9.748" y="9.734"/><use xlink:href="#Y" x="9.869" y="9.734"/><use xlink:href="#Z" x="9.991" y="9.734"/></g><use xlink:href="#A" x="5.051" y="10.258" class="D"/><g class="E"><use xlink:href="#B" x="5.574" y="10.258"/><use xlink:href="#D" x="5.941" y="10.258"/></g><g class="F"><use xlink:href="#C" x="6.102" y="10.258"/><use xlink:href="#Z" x="6.342" y="10.258"/><use xlink:href="#D" x="6.62" y="10.258"/><use xlink:href="#U" x="6.759" y="10.258"/><use xlink:href="#V" x="7.037" y="10.258"/><use xlink:href="#X" x="7.314" y="10.258"/><use xlink:href="#Y" x="7.435" y="10.258"/><use xlink:href="#Z" x="7.557" y="10.258"/><use xlink:href="#D" x="7.835" y="10.258"/><use xlink:href="#b" x="7.974" y="10.258"/><use xlink:href="#b" x="8.315" y="10.258"/><use xlink:href="#D" x="8.656" y="10.258"/><use xlink:href="#C" x="8.795" y="10.258"/><use xlink:href="#c" x="9.036" y="10.258"/><use xlink:href="#G" x="9.207" y="10.258"/><use xlink:href="#d" x="9.476" y="10.258"/><use xlink:href="#c" x="9.704" y="10.258"/></g><g stroke-width=".313"><path d="M17.496 22.027a2.64 2.64 0 0 0-.211-.281c-.078-.09-.164-.176-.25-.246l.188-.941c.016-.086-.035-.172-.117-.203l-1.352-.465c-.09-.031-.176.008-.219.082l-.441.855a2.71 2.71 0 0 0-.684.129l-.723-.625c-.07-.059-.168-.059-.234 0l-1.082.941a.17.17 0 0 0-.035.227l.52.805c-.105.211-.176.438-.227.66l-.906.316c-.082.031-.133.113-.113.203l.273 1.402c.02.09.094.152.184.145l.957-.051a1.83 1.83 0 0 0 .207.285 2.48 2.48 0 0 0 .246.25l-.184.941c-.016.082.035.168.113.199l1.355.465c.086.035.172-.008.219-.082l.438-.852c.234-.016.461-.055.688-.133l.723.629c.07.055.168.055.234-.004l1.082-.937c.066-.059.082-.156.031-.23l-.52-.805a2.54 2.54 0 0 0 .227-.66l.906-.312a.18.18 0 0 0 .113-.207l-.27-1.406c-.02-.09-.094-.148-.184-.141zm-1.359 2.492c-.559.484-1.41.426-1.895-.133a1.35 1.35 0 0 1 .133-1.895 1.35 1.35 0 0 1 1.895.133c.484.559.426 1.41-.133 1.895zm11.754-4.402c-.039-.184-.094-.367-.164-.562a3.32 3.32 0 0 0-.238-.535l.859-1.355a.31.31 0 0 0-.059-.383l-1.824-1.543c-.117-.102-.277-.09-.391-.004l-1.199 1.066c-.375-.117-.754-.195-1.148-.211l-.746-1.414a.3.3 0 0 0-.367-.141l-2.25.809c-.141.051-.219.191-.191.34l.324 1.566c-.297.262-.543.57-.754.891l-1.602-.062c-.148 0-.277.102-.301.254l-.422 2.348c-.027.148.051.293.199.336l1.523.496c.031.188.078.391.145.57s.145.371.238.539l-.859 1.352a.31.31 0 0 0 .059.383l1.824 1.543c.117.105.277.094.391.004l1.203-1.062a4.35 4.35 0 0 0 1.145.207l.746 1.414c.078.133.227.191.367.141l2.254-.809c.141-.051.223-.191.188-.34l-.324-1.562c.297-.266.547-.566.754-.895l1.602.063c.148 0 .277-.098.301-.254l.43-2.352a.29.29 0 0 0-.199-.332zm-3.629 3.063c-1.16.418-2.449-.191-2.867-1.355s.195-2.449 1.355-2.867 2.449.195 2.867 1.355-.191 2.449-1.355 2.867zm0 0" fill="rgb(6.666667%,38.431373%,55.686275%)" stroke="rgb(12.54902%,53.333333%,75.294118%)" class="G"/><path d="M25.938 21.156c0 1.293-1.047 2.344-2.344 2.344s-2.344-1.051-2.344-2.344 1.051-2.344 2.344-2.344a2.34 2.34 0 0 1 2.344 2.344zm0 0" fill="rgb(56.078431%,0%,0%)" stroke="rgb(100%,100%,100%)"/></g></svg>