<svg xmlns="http://www.w3.org/2000/svg" viewBox="0 0 1024 1024"><circle cx="511.5" cy="511.5" r="500.5" fill="#dff1e4"/><path d="M734 643H290c-16.6 0-30-13.4-30-30V319c0-16.6 13.4-30 30-30h444c16.6 0 30 13.4 30 30v294c0 16.6-13.4 30-30 30z" fill="#626590" stroke="#b5cde0" stroke-width="18" stroke-miterlimit="10"/><path d="M501 652h22v53h-22zm160.6 75H362.4c-5.8 0-10.4-4.7-10.4-10.4v-1.1c0-5.8 4.7-10.4 10.4-10.4h299.1c5.8 0 10.4 4.7 10.4 10.4v1.1c.1 5.7-4.6 10.4-10.3 10.4z" fill="#b5cde0"/><path d="M504.3 332.8c-33.1 2.1-62.5 15.1-85.8 37.9-21.2 20.7-34.7 47.1-38.8 76.1-1.1 7.2-1.3 10.7-1.2 19.4 0 12.3 1.1 21.1 3.9 32.4 2.5 9.8 5 16.7 9.7 26.3 5.1 10.5 10.1 18.1 17.7 27.2 3.3 4 12.8 13.4 17.1 16.9 19.8 16.2 42.8 26.1 67.8 29.4 8.7 1.1 19.2 1.4 22.2.6 5.1-1.4 9.1-4 12.1-7.6 3.6-4.5 5.3-9.7 4.9-15.4-.3-5.5-1.9-9-6.1-14-1.9-2.2-3.8-6-4.5-8.9-.7-2.7-.7-7.9 0-10.6 1.8-6.8 6.2-12.1 12.5-15 4.1-1.9 3.9-1.9 24.7-2.1l19.5-.4c.4-.1 2-.4 3.5-.6 14.9-2.3 29.2-9.8 40.2-20.9 9-9.1 15-19.1 18.7-31.5 3-10 3.7-22.5 2-35.2-5.2-37.1-29.6-69.8-66.1-88.4-16.2-8.2-32.9-13.1-51.8-15-4.5-.5-18.6-.8-22.2-.6zM481 363.2c7.6 2.4 13.2 8.2 15.2 15.8.8 3 .8 8 0 11-2.1 7.8-8.2 14-16 16-3.2.8-7.8.8-11 0-7.7-2-13.5-7.5-15.9-15.2-.8-2.5-1.1-7.4-.6-10.2 1.5-8.7 8.4-15.8 17.1-17.8 2.6-.6 8.7-.4 11.2.4zm72.3-.4c8.8 1.8 15.8 9 17.3 17.8.5 2.8.2 7.7-.6 10.2-2.4 7.6-8.2 13.1-15.9 15.2-3.2.8-7.8.8-11 0-7.8-2.1-14-8.2-16-16-.8-3.1-.8-8 0-11.1 2.2-8.2 9-14.6 17.3-16.3 2.1-.3 6.8-.3 8.9.2zm-119.7 59.1c4.9.8 8.7 2.8 12.4 6.5s5.6 7.6 6.2 12.9c.9 6.8-1.7 13.8-6.9 18.7-2.7 2.6-5.6 4.2-9.5 5.3-2.8.8-8.5.9-11.2.1-10.1-2.8-16.7-11.3-16.7-21.5 0-4.6 1.2-8.6 3.5-12.2 5-7.4 13.6-11.2 22.2-9.8zm165.5.5c9.7 2.7 16.2 11.3 16.2 21.4 0 4.6-1.1 8.2-3.5 12-7 10.8-21.4 13.4-31.8 5.8-3.4-2.5-6.6-7-8-11.1-2.5-7.5-.6-16 4.9-21.8 3.4-3.6 7.5-5.9 12.2-6.8 2.6-.5 7.4-.3 10 .5z" fill="#f7ebb7"/><circle cx="430.2" cy="443.9" r="22.2" fill="#ff2a30"/><circle cx="474.6" cy="384.5" r="22.2" fill="#ffa54a"/><circle cx="548.7" cy="384.5" r="22.2" fill="#fff16d"/><circle cx="593.1" cy="443.7" r="22.2" fill="#05c900"/></svg>